<svg xmlns="http://www.w3.org/2000/svg" version="1.1" xmlns:xlink="http://www.w3.org/1999/xlink" xmlns:svgjs="http://svgjs.com/svgjs" width="20" height="20"><svg width="20" height="20" viewBox="0 0 20 20" fill="none" xmlns="http://www.w3.org/2000/svg">
<circle cx="10" cy="10" r="10" fill="#E18787"></circle>
<circle cx="10" cy="10" r="8.75" stroke="white" stroke-width="0.5"></circle>
<path fill-rule="evenodd" clip-rule="evenodd" d="M13.7541 8.07126C14.158 7.89448 14.4645 7.59501 14.7519 7.29448C15.0795 6.95189 15.0838 6.52251 15.0838 6.29778C15.0838 5.94046 14.7481 5.65867 14.2025 5.64555C13.9135 5.63858 13.737 5.71064 13.4962 5.88608C13.3237 6.01144 12.9195 6.4218 13.0997 6.75742C13.1091 6.77483 13.1244 6.79599 13.1461 6.8209C13.1674 6.8457 13.1794 6.87725 13.1798 6.90998C13.1802 6.94271 13.169 6.97453 13.1482 6.99983C13.1274 7.02514 13.0976 7.04134 13.065 7.04499C13.0324 7.04865 12.9997 7.03946 12.9738 7.01939L12.9455 6.99742C12.5892 6.72528 12.3953 6.62403 12.3953 6.22091C12.3953 5.46233 13.3963 4.73349 14.363 4.7568C15.3286 4.7801 16.0805 5.47733 16.0805 6.29028C16.0805 6.73492 15.7971 7.36573 15.3337 7.85055C15.0374 8.16064 14.6797 8.4055 14.2834 8.56948C14.3086 8.61099 14.3346 8.65573 14.3611 8.70421C14.6236 9.1826 14.5893 9.24073 14.6228 9.83832C14.656 10.4362 14.4792 11.5049 14.547 12.0315C14.615 12.5579 14.9549 12.6165 15.0297 12.9958C15.0771 13.2361 15.1947 14.2791 15.3824 16.1244C15.3863 16.1617 15.3823 16.1995 15.3706 16.2352C15.359 16.2709 15.3399 16.3037 15.3148 16.3316C15.2896 16.3595 15.2589 16.3817 15.2246 16.397C15.1903 16.4122 15.1532 16.4201 15.1156 16.4201H14.5647C14.4938 16.4201 14.4258 16.3919 14.3756 16.3418C14.3255 16.2917 14.2973 16.2237 14.2973 16.1528V16.0197C14.2973 15.9353 14.337 15.8557 14.4045 15.8054L14.4897 15.7414C14.5297 15.7113 14.5606 15.6707 14.5787 15.624C14.5969 15.5773 14.6015 15.5265 14.5922 15.4772C14.4457 14.6972 14.3169 14.2277 14.206 14.0686C14.124 13.9507 13.7538 13.7587 13.2765 13.3864C13.1911 13.3194 13.0373 13.1774 12.8158 12.9599C12.798 12.9423 12.7756 12.93 12.7511 12.9245C12.7267 12.919 12.7012 12.9204 12.6775 12.9287C12.6538 12.937 12.633 12.9517 12.6173 12.9712C12.6016 12.9908 12.5917 13.0143 12.5887 13.0392C12.5485 13.3614 12.4981 13.633 12.4384 13.854C12.3661 14.1203 12.1438 14.8148 11.7717 15.9372C11.754 15.9907 11.7199 16.0372 11.6742 16.0702C11.6285 16.1032 11.5736 16.1209 11.5172 16.1209H10.816C10.7525 16.1208 10.6916 16.0956 10.6467 16.0507C10.6018 16.0058 10.5766 15.9449 10.5765 15.8814V15.8654C10.5765 15.8026 10.5984 15.7418 10.6386 15.6936C10.6788 15.6453 10.7347 15.6128 10.7964 15.6015L11.0972 15.5464C11.3131 14.7578 11.4072 14.1803 11.3798 13.8136C11.3605 13.5543 11.1854 13.2527 11.0088 12.7277C10.9722 12.6184 10.9205 12.3955 10.854 12.058C10.8505 12.0401 10.8433 12.0231 10.833 12.008C10.8226 11.993 10.8093 11.9802 10.7938 11.9705C10.7783 11.9608 10.761 11.9544 10.7429 11.9516C10.7249 11.9488 10.7064 11.9498 10.6888 11.9544L8.90403 12.4167C8.88439 12.4218 8.86615 12.4312 8.8507 12.4444C8.83525 12.4575 8.82299 12.474 8.81484 12.4926C8.80669 12.5111 8.80286 12.5313 8.80365 12.5516C8.80444 12.5719 8.80982 12.5917 8.81938 12.6096L8.86144 12.6889C8.94179 12.8394 8.98358 13.0076 8.98358 13.1782V15.6854C8.98358 15.7687 8.94474 15.8474 8.87858 15.8983L8.50438 16.1849C8.45752 16.2209 8.40008 16.2404 8.34099 16.2404H8.07233C8.00127 16.2403 7.93314 16.212 7.88291 16.1617C7.83269 16.1115 7.80447 16.0433 7.80447 15.9722V15.8356C7.80447 15.7384 7.8567 15.6487 7.94162 15.6013L8.13447 15.4936C8.17953 15.4685 8.21638 15.4309 8.24062 15.3854C8.26485 15.3399 8.27543 15.2884 8.27108 15.237C8.24054 14.8751 8.20304 14.5997 8.15804 14.4112C8.11197 14.2167 8.00001 13.8696 7.82242 13.3703C7.81511 13.3497 7.8029 13.3313 7.78684 13.3165C7.77078 13.3018 7.75136 13.2912 7.73027 13.2856C7.70918 13.2801 7.68705 13.2798 7.66581 13.2847C7.64457 13.2897 7.62487 13.2997 7.6084 13.314L7.55617 13.359C7.42519 13.4723 7.26528 13.5465 7.09438 13.5741L5.41974 13.842C5.39591 13.8458 5.37354 13.856 5.35502 13.8715C5.3365 13.8869 5.32251 13.9071 5.31452 13.9299C5.30653 13.9527 5.30485 13.9772 5.30965 14.0009C5.31445 14.0245 5.32556 14.0464 5.34179 14.0643L5.51992 14.2604C5.56492 14.3097 5.58956 14.3739 5.58956 14.4406V14.6158C5.58954 14.6517 5.58233 14.6872 5.56836 14.7202C5.55438 14.7532 5.53393 14.7831 5.50821 14.808C5.48248 14.833 5.45202 14.8526 5.4186 14.8656C5.38519 14.8786 5.34951 14.8847 5.31367 14.8837L5.09403 14.8772C5.05408 14.8761 5.0149 14.866 4.97936 14.8477C4.94381 14.8295 4.9128 14.8035 4.88858 14.7717L4.61162 14.409C4.57599 14.3623 4.5567 14.3052 4.5567 14.2464V13.7139C4.5567 13.621 4.60492 13.5345 4.68394 13.4857C5.82795 12.7786 6.44831 12.3878 6.54501 12.3125C6.64519 12.2348 6.68697 12.1049 6.67037 11.923C6.48394 11.3694 6.18528 11.1733 6.05108 10.8455C5.91715 10.5179 5.66804 9.49814 5.54483 9.10653C5.29706 8.31903 5.07956 7.90251 5.0209 7.77796C4.88912 7.49832 4.65662 7.45867 4.41099 7.36224C4.16537 7.26555 3.69849 7.28028 3.39474 7.01376C3.09126 6.74698 3.11912 6.46841 3.0484 6.16519V5.79421C3.0484 5.64608 3.16867 5.52608 3.31679 5.52608H4.04429C4.1426 5.52608 4.23287 5.47251 4.28001 5.38599C4.36304 5.23358 4.49563 5.08787 4.67804 4.94912C4.92083 4.76565 5.19746 4.63193 5.49206 4.55564C5.4251 3.72153 5.4251 3.25037 5.49206 3.14216C5.55903 3.03394 5.74519 3.20323 6.05108 3.65001C6.09474 3.12394 6.17992 2.93108 6.30688 3.07144C6.42528 3.20269 6.62965 3.67948 6.91974 4.5018C6.95778 4.60894 7.01269 4.71019 7.08233 4.80046C7.20421 4.95796 7.31403 5.14653 7.41233 5.36564C7.59903 5.78242 7.81706 6.87099 8.20304 7.40644C8.58876 7.94189 8.81403 7.98582 9.37117 8.08492C9.74135 8.15082 11.0177 7.94028 12.0631 7.89957C12.8683 7.86796 13.516 8.00349 13.6328 8.03349C13.6748 8.04448 13.715 8.0568 13.7541 8.07126Z" fill="black"></path>
</svg><style>@media (prefers-color-scheme: light) { :root { filter: none; } }
</style></svg>